<svg xmlns="http://www.w3.org/2000/svg" width="18" height="16" fill="currentColor" viewBox="0 0 18 16">
  <path d="M17.9 3.05a.59.59 0 0 0-.45-.23L6.28 2.36a.56.56 0 0 0-.6.53c-.01.3.23.55.55.56l10.41.43L14.6 9.9H5.5L3.84 1.45a.55.55 0 0 0-.36-.41l-2.7-1a.59.59 0 0 0-.74.3c-.12.29.03.6.33.71l2.4.9 1.67 8.6c.05.26.29.45.57.45h.27l-.63 1.66c-.05.14-.03.3.06.42s.24.2.4.2h.44c-.28.28-.45.66-.45 1.08 0 .9.78 1.64 1.73 1.64.96 0 1.74-.73 1.74-1.64 0-.42-.17-.8-.45-1.09h3.78c-.28.3-.45.67-.45 1.1 0 .9.78 1.63 1.74 1.63.95 0 1.73-.73 1.73-1.64 0-.42-.17-.8-.45-1.09h.55c.26 0 .48-.2.48-.45a.47.47 0 0 0-.48-.46H5.79L6.3 11H15c.26 0 .48-.15.56-.38l2.4-7.09a.52.52 0 0 0-.07-.48ZM6.83 15.1c-.42 0-.77-.32-.77-.73 0-.4.35-.72.77-.72.43 0 .77.32.77.72 0 .4-.34.73-.77.73Zm6.36 0c-.43 0-.77-.32-.77-.73 0-.4.34-.72.77-.72.42 0 .77.32.77.72 0 .4-.35.73-.77.73Z"/>
</svg>
