<svg xmlns="http://www.w3.org/2000/svg" width="21" height="18" fill="currentColor" viewBox="0 0 21 18">
  <path stroke="currentColor" stroke-width=".75" d="M19.97 5.77a5.23 5.23 0 0 0-9.52-2.49 5.15 5.15 0 0 0-9.42 2.49c-.02.12-.11.77.16 1.81a7.68 7.68 0 0 0 2.63 3.98L10.44 17l6.74-5.44a7.68 7.68 0 0 0 2.63-3.98c.27-1.04.18-1.69.16-1.8Zm-.87 1.66a7.02 7.02 0 0 1-2.41 3.64l-6.24 5.04-6.14-5.04a7.03 7.03 0 0 1-2.4-3.64c-.26-.99-.16-1.55-.16-1.55v-.04a4.46 4.46 0 0 1 4.42-4.18 4.3 4.3 0 0 1 3.94 2.49l.34.72.33-.72a4.44 4.44 0 0 1 4.05-2.49c2.32 0 4.17 1.76 4.42 4.21 0 .01.1.57-.15 1.56Z"/>
</svg>
