<svg xmlns="http://www.w3.org/2000/svg" xmlns:xlink="http://www.w3.org/1999/xlink"><symbol id="arrow-left" viewBox="0 0 7 12"><g fill="none" stroke="currentColor"><path d="M6 1L1 6l5 5" stroke-width=".5"/></g></symbol><symbol id="cart" viewBox="0 0 18 16"><g fill="currentColor"><path d="M17.9 3.05a.59.59 0 00-.45-.23L6.28 2.36a.56.56 0 00-.6.53c-.01.3.23.55.55.56l10.41.43L14.6 9.9H5.5L3.84 1.45a.55.55 0 00-.36-.41l-2.7-1a.59.59 0 00-.74.3c-.12.29.03.6.33.71l2.4.9 1.67 8.6c.05.26.29.45.57.45h.27l-.63 1.66c-.05.14-.03.3.06.42s.24.2.4.2h.44c-.28.28-.45.66-.45 1.08 0 .9.78 1.64 1.73 1.64.96 0 1.74-.73 1.74-1.64 0-.42-.17-.8-.45-1.09h3.78c-.28.3-.45.67-.45 1.1 0 .9.78 1.63 1.74 1.63.95 0 1.73-.73 1.73-1.64 0-.42-.17-.8-.45-1.09h.55c.26 0 .48-.2.48-.45a.47.47 0 00-.48-.46H5.79L6.3 11H15c.26 0 .48-.15.56-.38l2.4-7.09a.52.52 0 00-.07-.48zM6.83 15.1c-.42 0-.77-.32-.77-.73 0-.4.35-.72.77-.72.43 0 .77.32.77.72 0 .4-.34.73-.77.73zm6.36 0c-.43 0-.77-.32-.77-.73 0-.4.34-.72.77-.72.42 0 .77.32.77.72 0 .4-.35.73-.77.73z"/></g></symbol><symbol id="facebook" viewBox="0 0 12 22"><g fill="currentColor"><path d="M8.832.571c-3.136 0-5.284 1.73-5.284 4.906v2.737H0v3.713h3.548v9.522h4.24v-9.522h3.539l.531-3.713h-4.07v-2.37c0-1.075.332-1.808 2.037-1.808H12V.718C11.624.672 10.334.571 8.832.571z"/></g></symbol><symbol id="heart" viewBox="0 0 21 18"><g fill="currentColor"><path stroke="currentColor" stroke-width=".75" d="M19.97 5.77a5.23 5.23 0 00-9.52-2.49 5.15 5.15 0 00-9.42 2.49c-.02.12-.11.77.16 1.81a7.68 7.68 0 002.63 3.98L10.44 17l6.74-5.44a7.68 7.68 0 002.63-3.98c.27-1.04.18-1.69.16-1.8zm-.87 1.66a7.02 7.02 0 01-2.41 3.64l-6.24 5.04-6.14-5.04a7.03 7.03 0 01-2.4-3.64c-.26-.99-.16-1.55-.16-1.55v-.04a4.46 4.46 0 014.42-4.18 4.3 4.3 0 013.94 2.49l.34.72.33-.72a4.44 4.44 0 014.05-2.49c2.32 0 4.17 1.76 4.42 4.21 0 .01.1.57-.15 1.56z"/></g></symbol><symbol id="instagram" viewBox="0 0 23 24"><g fill="currentColor"><path d="M6.657.673C2.986.673 0 3.64 0 7.283v9.558c0 3.644 2.986 6.608 6.657 6.608h9.686c3.671 0 6.657-2.964 6.657-6.608V7.283c0-3.644-2.986-6.61-6.657-6.61H6.657zm0 1.958h9.686c2.613 0 4.686 2.058 4.686 4.652v9.558c0 2.593-2.073 4.65-4.686 4.65H6.657c-2.613 0-4.685-2.056-4.685-4.65V7.283c0-2.594 2.072-4.652 4.685-4.652zM17.673 4.59c-.762 0-1.38.613-1.38 1.37 0 .756.618 1.368 1.38 1.368.762 0 1.379-.612 1.379-1.369 0-.756-.617-1.369-1.38-1.369zM11.5 6.197c-3.251 0-5.907 2.637-5.907 5.864s2.656 5.864 5.907 5.864 5.909-2.637 5.909-5.864-2.658-5.864-5.909-5.864zm0 1.958c2.185 0 3.937 1.737 3.937 3.906 0 2.17-1.752 3.906-3.937 3.906-2.185 0-3.935-1.737-3.935-3.906 0-2.17 1.75-3.906 3.935-3.906z"/></g></symbol><symbol id="ruble" viewBox="0 0 10 13"><g fill="none" stroke="currentColor"><path d="M2.048.5h3.988a3.06 3.06 0 010 6.12H2.048V.5zM2 6.5H0M2 0v13M.31 9.697h6.5"/></g></symbol><symbol id="search" viewBox="0 0 16 16"><g fill="currentColor"><path d="M15.8 14.86l-3.84-3.84a6.74 6.74 0 10-.94.94l3.84 3.84a.67.67 0 00.94-.94zm-9.06-2.72a5.4 5.4 0 11.01-10.81 5.4 5.4 0 010 10.81z"/></g></symbol><symbol id="twitter" viewBox="0 0 22 18"><g fill="currentColor"><path d="M22 2.39a9.354 9.354 0 01-2.592.679A4.368 4.368 0 0021.392.683a9.283 9.283 0 01-2.866 1.046A4.607 4.607 0 0015.232.367c-2.493 0-4.513 1.931-4.513 4.313 0 .338.04.667.117.982-3.751-.18-7.077-1.897-9.303-4.505a4.145 4.145 0 00-.611 2.167c0 1.497.796 2.816 2.008 3.59a4.65 4.65 0 01-2.045-.54v.055c0 2.09 1.555 3.832 3.62 4.228a4.71 4.71 0 01-2.038.074c.575 1.713 2.241 2.96 4.216 2.995a9.331 9.331 0 01-5.606 1.846A9.67 9.67 0 010 15.512a13.215 13.215 0 006.92 1.937c8.3 0 12.84-6.57 12.84-12.27 0-.187-.005-.372-.013-.557a8.974 8.974 0 002.252-2.233"/></g></symbol></svg>